<svg height="144" preserveAspectRatio="xMidYMid" viewBox="0 0 512 144" width="512" xmlns="http://www.w3.org/2000/svg"><g fill="#430098"><path d="m116.494382 0c7.044273 0 12.775538 5.62742772 12.940182 12.633833l.003638.3099872v117.9325838c0 7.044273-5.629173 12.775538-12.633909 12.940182l-.309911.003639h-103.5505618c-7.0442729 0-12.77553755-5.629174-12.94018158-12.633909l-.00363862-.309912v-117.9325838c0-7.04604459 5.62917374-12.7755889 12.6339089-12.9401827l.3099113-.0036375zm0 7.19101124h-103.5505618c-3.09748626 0-5.63241689 2.46289606-5.74864542 5.53254176l-.00416354.2202672v117.9325838c0 3.097487 2.46289606 5.632417 5.53254176 5.748646l.2202672.004163h103.5505618c3.099242 0 5.632499-2.462896 5.748648-5.532541l.004161-.220268v-117.9325838c0-3.17123593-2.579775-5.75280896-5.752809-5.75280896zm-84.1348314 86.29213486 16.1797752 14.3820229-16.1797752 14.382022zm14.3820224-71.9101124v40.8287641c7.1802248-2.3370787 17.2170787-4.8737079 26.9662922-4.8737079 8.8898876 0 14.2112359 3.4948314 17.1092135 6.4269663 6.0919671 6.1628039 6.2666274 13.9881059 6.2601734 15.1001715l-.0003982.0458959.0017978 43.1460674h-14.3820225v-42.9483146c-.0701123-3.3564045-1.6880899-7.388764-8.988764-7.388764-14.4766922 0-30.6977421 7.20825-31.1794519 7.4239337l-.0097616.0043809-10.1591011 4.6022472v-62.3676405zm50.3370787 0c-.9707865 8.1689888-4.2822472 16-10.7865169 23.3707865h-14.3820224c5.6521348-7.4157303 9.2008988-15.2197753 10.7865168-23.3707865z"/><path d="m365.094831 45.8211236c12.76045 0 26.022472 8.1042697 26.022472 27.527191 0 19.4265169-13.262022 27.5271914-26.022472 27.5271914-12.832359 0-26.092584-8.1006745-26.092584-27.5271914 0-19.4229213 13.260225-27.527191 26.092584-27.527191zm116.724495 1.0049438v31.687191c0 7.3078652 2.365843 10.6067416 8.102472 10.6067416 5.733033 0 8.026966-3.2988764 8.026966-10.6067416v-31.687191h14.051236v31.7573034c0 14.0530337-6.737978 22.0782022-22.222022 22.0782022-15.485843 0-22.295731-8.0251685-22.295731-22.0782022v-31.7573034zm-305.684495 0v19.7123596h17.634158v-19.7123596h14.338876v53.0480899h-14.338876v-21.4346067h-17.634158v21.4346067h-14.337078v-53.0480899zm88.289439 0v11.9011236h-23.512809v8.6022472h16.774831v11.1838202h-16.774831v9.8193259h24.733483v11.541573h-39.070562v-53.0480899zm37.684494 0c13.619775 0 21.93618 4.5177528 21.93618 17.2764045 0 8.3146068-3.514607 13.12-10.466517 15.4822472l11.253933 20.2894382h-15.196405l-10.252584-18.421573h-3.942472v18.421573h-14.049438v-53.0480899zm119.30427 0v19.214382l14.626517-19.214382h16.629213l-17.849888 20.9330337 19.426517 32.1150562h-16.201348l-12.542921-21.2206742-4.08809 4.7316854v16.4889888h-14.335281v-53.0480899zm-56.318203 10.8242697c-7.527191 0-11.755505 5.948764-11.755505 15.6979775 0 9.752809 4.228314 16.0593258 11.755505 16.0593258 7.455281 0 11.683596-6.3065168 11.683596-16.0593258 0-9.7492135-4.228315-15.6979775-11.683596-15.6979775zm-63.489438.7874157h-6.164494v12.1150562h6.164494c5.878652 0 8.458427-1.6485393 8.458427-6.0925843 0-4.4422472-2.579775-6.0224719-8.458427-6.0224719z"/></g></svg>